<svg width="106" height="106" viewBox="0 0 106 106" fill="none" xmlns="http://www.w3.org/2000/svg">
<path fill-rule="evenodd" clip-rule="evenodd" d="M53 106C82.2711 106 106 82.2711 106 53C106 23.7289 82.2711 0 53 0C23.7289 0 0 23.7289 0 53C0 82.2711 23.7289 106 53 106Z" fill="#F1FBFF"/>
<path fill-rule="evenodd" clip-rule="evenodd" d="M65.0004 29.6666H64.7337C59.7681 29.7826 55.2488 32.5609 52.9034 36.9394C50.4677 32.6736 45.9527 30.0193 41.0408 29.9656H40.8792C33.1863 29.9656 27.0368 36.9959 27.1418 45.602C27.1585 47.2029 27.4089 48.7927 27.8853 50.3212C28.9681 55.1697 36.7742 62.2646 43.9822 68.0101C47.4893 70.7818 53.3964 74.9192 53.3964 74.9192C56.5975 72.7256 59.673 70.3542 62.6085 67.8161C69.663 61.901 77.2428 54.5717 78.2287 49.6828C78.6648 48.14 78.8771 46.5425 78.859 44.9394C78.754 36.4141 72.5721 29.6666 65.0004 29.6666ZM32.7994 35.097C34.9125 32.8889 37.8242 31.6224 40.8802 31.5819H41.0176C45.3743 31.6023 49.3849 33.9593 51.5226 37.7556L52.961 40.1798L54.3347 37.7556C56.3865 33.8644 60.3854 31.3902 64.7832 31.2909H65.0176C71.6762 31.2909 77.1388 37.4243 77.26 44.9637C77.2687 46.3477 77.0865 47.7264 76.7186 49.0606H68.759L63.3691 41.8768L58.4721 51.6627L52.662 45.0202L48.9044 57.0445L42.6176 39.7435L37.9549 49.0606H29.2196C28.9308 47.9244 28.7762 46.7582 28.759 45.5859C28.6648 41.6927 30.1177 37.9209 32.7994 35.097ZM53.429 72.988C55.538 71.5254 58.2694 69.392 61.5663 66.6122V66.5799C71.6835 58.095 75.1098 53.2466 76.2168 50.6769H67.9502L63.6431 44.9314L58.8431 54.5395L53.3401 48.2526L49.0168 62.087L42.3744 43.8324L38.9562 50.6769H29.6795C30.633 53.3112 34.1885 58.1355 44.9926 66.7415C47.3597 68.6134 50.8494 71.1285 52.8345 72.5593C53.0518 72.716 53.2511 72.8596 53.429 72.988Z" fill="#004071"/>
</svg>
