<svg width="22" height="22" viewBox="0 0 22 22" fill="none" xmlns="http://www.w3.org/2000/svg">
<path d="M20.1564 0H1.17689C0.527111 0 0 0.527111 0 1.17689V20.1564C0 20.8071 0.527111 21.3333 1.17689 21.3333H11.3938V13.072H8.61244V9.85333H11.3938V7.47556C11.3938 4.72089 13.0773 3.22222 15.5351 3.22222C16.7129 3.22222 17.7253 3.30844 18.0204 3.34756V6.22756H16.3129C14.9796 6.22756 14.72 6.86844 14.72 7.80178V9.856H17.9058L17.4924 13.0827H14.72V21.3333H20.1556C20.8071 21.3333 21.3333 20.8071 21.3333 20.1564V1.17689C21.3333 0.527111 20.8071 0 20.1564 0Z" fill="#004071"/>
</svg>
