<svg width="22" height="22" viewBox="0 0 22 22" fill="none" xmlns="http://www.w3.org/2000/svg">
<path fill-rule="evenodd" clip-rule="evenodd" d="M11.3334 0.666626C8.43564 0.666626 8.07386 0.679959 6.93608 0.730626C5.80008 0.783959 5.02675 0.962626 4.34675 1.22663C3.64541 1.49863 3.04986 1.86396 2.45697 2.45685C1.86408 3.04974 1.49786 3.6444 1.22675 4.34663C0.962748 5.02663 0.783192 5.79996 0.730748 6.93596C0.677415 8.07374 0.666748 8.43552 0.666748 11.3333C0.666748 14.2311 0.680081 14.5928 0.730748 15.7306C0.784081 16.8657 0.962748 17.64 1.22675 18.32C1.49875 19.0204 1.86408 19.6168 2.45697 20.2097C3.04986 20.8017 3.64453 21.1688 4.34675 21.44C5.02764 21.7031 5.80097 21.8835 6.93608 21.936C8.07386 21.9893 8.43564 22 11.3334 22C14.2312 22 14.593 21.9866 15.7307 21.936C16.8659 21.8826 17.6401 21.7031 18.3201 21.44C19.0205 21.168 19.617 20.8017 20.2099 20.2097C20.8019 19.6168 21.169 19.0231 21.4401 18.32C21.7032 17.64 21.8836 16.8657 21.9361 15.7306C21.9894 14.5928 22.0001 14.2311 22.0001 11.3333C22.0001 8.43552 21.9867 8.07374 21.9361 6.93596C21.8827 5.80085 21.7032 5.02574 21.4401 4.34663C21.1681 3.64529 20.8019 3.04974 20.2099 2.45685C19.617 1.86396 19.0232 1.49774 18.3201 1.22663C17.6401 0.962626 16.8659 0.78307 15.7307 0.730626C14.593 0.677293 14.2312 0.666626 11.3334 0.666626ZM11.3334 2.58663C14.1805 2.58663 14.5201 2.60085 15.6445 2.64974C16.6845 2.69863 17.249 2.87107 17.6241 3.01863C18.1236 3.21151 18.4774 3.44263 18.8525 3.81507C19.225 4.1884 19.4561 4.54307 19.649 5.04263C19.7947 5.41774 19.969 5.98218 20.0161 7.02218C20.0667 8.14751 20.0783 8.48529 20.0783 11.3333C20.0783 14.1813 20.065 14.52 20.0125 15.6444C19.9583 16.6844 19.785 17.2488 19.6383 17.624C19.4392 18.1235 19.2125 18.4773 18.8392 18.8524C18.4667 19.2248 18.1067 19.456 17.6125 19.6488C17.2392 19.7946 16.6659 19.9688 15.6259 20.016C14.4934 20.0666 14.1601 20.0782 11.3067 20.0782C8.45253 20.0782 8.11919 20.0648 6.98764 20.0124C5.94675 19.9582 5.37341 19.7848 5.00008 19.6382C4.4943 19.4391 4.14675 19.2124 3.7743 18.8391C3.40008 18.4666 3.16097 18.1066 2.9743 17.6124C2.82764 17.2391 2.65519 16.6657 2.60097 15.6257L2.59883 15.5659C2.56046 14.4925 2.54675 14.1088 2.54675 11.32C2.54675 8.5339 2.56043 8.14671 2.59868 7.06383L2.60097 6.99907C2.65519 5.95907 2.82764 5.38663 2.9743 5.01329C3.16097 4.50663 3.40008 4.15996 3.7743 3.78574C4.14675 3.41329 4.4943 3.17329 5.00008 2.98751C5.37341 2.83996 5.9343 2.66663 6.9743 2.61329L7.02566 2.61148H7.02566C8.1184 2.57289 8.48451 2.55996 11.2934 2.55996L11.3334 2.58663ZM5.85608 11.3333C5.85608 8.30929 8.30675 5.85596 11.3334 5.85596C14.3574 5.85596 16.8107 8.30663 16.8107 11.3333C16.8107 14.3573 14.3601 16.8106 11.3334 16.8106C8.30941 16.8106 5.85608 14.36 5.85608 11.3333ZM11.3334 14.8888C9.36897 14.8888 7.77786 13.2977 7.77786 11.3333C7.77786 9.36885 9.36897 7.77774 11.3334 7.77774C13.2979 7.77774 14.889 9.36885 14.889 11.3333C14.889 13.2977 13.2979 14.8888 11.3334 14.8888ZM17.0276 6.91996C17.7334 6.91996 18.3076 6.34663 18.3076 5.63996C18.3076 4.93418 17.7325 4.35996 17.0276 4.36085C16.3219 4.36085 15.7476 4.93418 15.7476 5.63996C15.7476 6.34574 16.321 6.91996 17.0276 6.91996Z" fill="#004071"/>
</svg>
