<svg width="21" height="18" viewBox="0 0 21 18" fill="none" xmlns="http://www.w3.org/2000/svg">
<path d="M20.4407 2.22652C19.6855 2.56366 18.8791 2.79332 18.0301 2.89819C18.8954 2.36866 19.561 1.53406 19.8758 0.538257C19.0643 1.01926 18.1649 1.36939 17.2075 1.56439C16.4429 0.733257 15.3532 0.213257 14.1431 0.213257C11.8246 0.213257 9.94475 2.12252 9.94475 4.47466C9.94475 4.81266 9.98315 5.13766 10.0531 5.44879C6.56299 5.28152 3.46965 3.57939 1.39947 1.00626C1.03509 1.63199 0.831147 2.35912 0.831147 3.15126C0.831147 4.63326 1.57355 5.93586 2.69824 6.70112C2.0096 6.67859 1.36192 6.48619 0.797013 6.16726V6.22012C0.797013 8.28712 2.24171 10.0109 4.16427 10.4035C3.81184 10.4997 3.43979 10.5517 3.05835 10.5517C2.7904 10.5517 2.53355 10.5257 2.27669 10.4772C2.81515 12.1698 4.36309 13.4039 6.20544 13.4386C4.77184 14.5817 2.95509 15.2629 0.9984 15.2629C0.6656 15.2629 0.333653 15.243 0 15.2049C1.86795 16.413 4.06869 17.1193 6.44864 17.1193C14.1747 17.1193 18.3945 10.6228 18.3945 4.99812C18.3945 4.81699 18.3945 4.63412 18.3817 4.45212C19.2017 3.85499 19.9177 3.10012 20.4809 2.24386L20.4407 2.22652Z" fill="#004071"/>
</svg>
