<svg width="22" height="15" viewBox="0 0 22 15" fill="none" xmlns="http://www.w3.org/2000/svg">
<path fill-rule="evenodd" clip-rule="evenodd" d="M19.3574 0.445346C20.2582 0.696732 20.9621 1.4006 21.2134 2.30135C21.522 4.00375 21.6708 5.73126 21.6579 7.46135C21.6696 9.18491 21.5208 10.9058 21.2134 12.6018C20.9621 13.5025 20.2582 14.2064 19.3574 14.4578C17.6774 14.904 11.0054 14.904 11.0054 14.904C11.0054 14.904 4.31389 14.904 2.65344 14.4578C1.75269 14.2064 1.04883 13.5025 0.797444 12.6018C0.483563 10.9064 0.328225 9.18552 0.333444 7.46135C0.327009 5.73065 0.482351 4.00313 0.797444 2.30135C1.04883 1.4006 1.75269 0.696732 2.65344 0.445346C4.33256 -0.00887629 11.0054 1.26102e-05 11.0054 1.26102e-05C11.0054 1.26102e-05 17.6952 1.26064e-05 19.3574 0.445346ZM8.87033 4.25957V10.6533L14.4383 7.46135L8.87033 4.25957Z" fill="#004071"/>
</svg>
