<svg width="69" height="63" viewBox="0 0 69 63" fill="none" xmlns="http://www.w3.org/2000/svg">
<path fill-rule="evenodd" clip-rule="evenodd" d="M54.8197 9.71196C48.7021 3.74593 41.3611 0.763092 32.8117 0.763092C23.779 0.763092 16.1512 3.70246 9.9127 9.58181C3.67456 15.4753 0.547852 22.6578 0.547852 31.1434C0.547852 39.5423 3.64424 46.7103 9.83728 52.6617C16.0301 58.5989 23.507 61.5675 32.2831 61.5675C41.0891 61.5675 48.5962 58.6134 54.7592 52.7051C60.922 46.7826 64.0034 39.6001 64.0034 31.1434C64.0034 22.8316 60.9371 15.678 54.8197 9.71196ZM20.8802 19.7544C24.0236 16.6005 27.8068 15.0234 32.2847 15.0234C36.7806 15.0234 40.5822 16.5831 43.7076 19.7191C46.8332 22.8555 48.3867 26.658 48.3867 31.1434C48.3867 35.6289 46.8332 39.4314 43.7076 42.5676C40.5822 45.7043 36.7806 47.2635 32.2847 47.2635C27.8437 47.2635 24.06 45.6867 20.8984 42.5326C17.7363 39.3961 16.1643 35.594 16.1643 31.1434C16.1643 26.6931 17.7363 22.8907 20.8802 19.7544Z" fill="#004071"/>
<path d="M40.8738 33.3167L46.9164 40.3005C47.1817 40.6067 47.1481 41.0699 46.8416 41.3349C46.7204 41.4397 46.5749 41.4976 46.4266 41.5107L45.6339 41.6124C41.1527 42.1876 39.1259 42.4476 35.8088 42.5175C35.5257 42.523 35.277 42.3674 35.1501 42.135L33.2409 40.0441L33.2404 40.0435L25.5845 32.3704C25.2986 32.0831 25.2998 31.6187 25.5873 31.333C25.7385 31.1828 25.9389 31.112 26.1365 31.1204C27.7736 31.1198 29.1614 31.119 30.5232 31.1183C32.2096 31.1176 33.8563 31.1167 35.8875 31.1158C37.0407 31.1153 37.905 31.2345 38.6869 31.5745C39.4766 31.9179 40.1368 32.4648 40.8738 33.3167Z" fill="#004071"/>
<path fill-rule="evenodd" clip-rule="evenodd" d="M40.3188 33.7965L46.3614 40.7803C41.3219 41.4258 39.267 41.7116 35.7947 41.7846C35.7808 41.758 35.7672 41.731 35.7525 41.705L33.7847 39.5498L26.1052 31.8531C29.7874 31.8515 32.2056 31.8501 35.8877 31.8487C37.9898 31.8477 38.9914 32.2622 40.3188 33.7965Z" fill="white"/>
<path fill-rule="evenodd" clip-rule="evenodd" d="M40.3188 33.7965L46.3614 40.7803C45.7118 41.0571 45.7189 41.8997 46.0441 42.4688C47.2424 44.5666 47.9233 44.3543 49.3396 45.3874L48.567 55.2075C48.4615 55.4549 48.3809 55.6191 48.2548 55.7231C48.1625 55.799 48.0517 55.8536 47.9023 55.8675C47.2373 55.9299 46.5054 55.924 46.2735 55.7495C45.8327 55.47 45.8515 54.8982 45.8004 53.7159C45.7651 52.9009 45.6304 53.3446 45.5564 53.6658C45.3588 54.525 45.019 55.7193 44.7517 55.7763C44.3378 55.8313 43.5372 55.7691 43.2457 55.7227C42.8818 55.5998 42.6954 54.2509 42.5911 53.3697C42.4972 52.5766 42.4218 52.951 42.3232 53.381C42.1134 54.2951 41.7534 55.385 41.5262 55.4422C40.9422 55.5605 40.2802 55.5716 39.6077 55.3028C39.3949 55.2351 39.386 53.9076 39.3081 53.0502C39.2535 52.4505 39.1491 52.7727 39.0676 53.0811C38.8792 53.7918 38.5822 54.83 38.2723 55.0207C37.9233 55.2354 36.3191 55.1439 36.2068 54.4073C36.1457 53.8165 36.181 53.3346 36.2054 53.0419C36.6652 49.7472 36.029 45.1002 35.7947 41.7846C35.7808 41.758 35.7672 41.731 35.7525 41.705L33.7846 39.5498L26.1052 31.8531C29.7874 31.8515 32.2056 31.8501 35.8877 31.8487C37.9898 31.8477 38.9914 32.2622 40.3188 33.7965Z" fill="white"/>
<path fill-rule="evenodd" clip-rule="evenodd" d="M34.3924 43.8462C34.3794 44.0994 34.4657 44.3749 34.6337 44.5964C34.6133 44.6307 34.5949 44.6661 34.578 44.702C34.5475 44.7673 34.5224 44.8339 34.504 44.9003C34.4854 44.9666 34.4726 45.0328 34.4662 45.0973C34.4655 45.1034 34.4648 45.1096 34.4644 45.1159C34.464 45.1202 34.464 45.1214 34.464 45.1241C34.464 45.1275 34.464 45.1333 34.4631 45.1515L34.3888 46.7458C34.3792 46.9559 34.4497 47.2063 34.5727 47.4236C34.5501 47.4529 34.5293 47.4837 34.5099 47.5156C34.4743 47.5747 34.4434 47.6425 34.4181 47.7187C34.3942 47.7905 34.3781 47.865 34.3709 47.9411C34.3691 47.9602 34.3679 47.9762 34.3672 47.9883H34.3674L34.3672 47.9902L34.2939 49.584H34.294L34.2939 49.586C34.2852 49.7958 34.3505 50.0242 34.466 50.2212C34.4284 50.2728 34.3951 50.3273 34.3669 50.3839C34.3367 50.4447 34.3105 50.5142 34.2895 50.5909C34.269 50.6654 34.2563 50.7411 34.2523 50.816L34.252 50.8195H34.2524L34.252 50.8233L34.1776 52.4162H34.1778L34.1776 52.418C34.1604 52.8193 34.3798 53.178 34.7113 53.3591C34.7795 53.3964 34.8489 53.4255 34.9186 53.4454C34.9885 53.4654 35.0645 53.4782 35.146 53.4825V53.4823L35.148 53.4825L35.1512 53.4826V53.4825L35.1531 53.4826L36.9486 53.5658L36.9535 53.5662L37.7265 53.6025V53.6023L37.7303 53.6025C38.1316 53.619 38.4903 53.4008 38.6714 53.071C38.7058 53.0084 38.7344 52.939 38.756 52.864C38.7776 52.7896 38.7912 52.7135 38.7955 52.6367L38.7956 52.6334H38.7952L38.7956 52.6276L38.8683 51.0344C38.8742 50.9021 38.8543 50.774 38.8131 50.6553C38.8782 50.6183 38.9389 50.575 38.9941 50.5255C39.0603 50.4663 39.118 50.4006 39.1651 50.3298C39.212 50.2592 39.2511 50.1791 39.2804 50.0905C39.3093 50.0038 39.3268 49.9134 39.3312 49.8209H39.3311L39.3312 49.819L39.4045 48.2264C39.4173 47.9515 39.3093 47.7499 39.1344 47.5999C39.281 47.4456 39.3778 47.2374 39.3906 46.9564L39.4649 45.328C39.4855 44.8652 39.2479 44.5877 38.9126 44.414C38.9679 44.3138 39.0025 44.1973 39.0087 44.0614L39.0829 42.468C39.1009 42.0667 38.8819 41.7074 38.5497 41.5263C38.4815 41.489 38.4118 41.4599 38.3422 41.4398C38.2724 41.4198 38.1962 41.4071 38.1146 41.4028L38.1115 41.4026V41.4029L38.1077 41.4026L36.9613 41.3492L35.532 41.283V41.2831L35.5302 41.283C35.1297 41.2661 34.7708 41.4845 34.5894 41.8145C34.5552 41.8769 34.5266 41.9464 34.5046 42.0216C34.4832 42.0957 34.4696 42.1718 34.4653 42.2489L34.4651 42.2521H34.4655L34.4651 42.2579L34.393 43.8375L34.3924 43.8462ZM35.5043 44.0603L35.5028 44.0602V44.0599C35.4922 44.0588 35.4825 44.0565 35.4739 44.0534C35.4629 44.0494 35.4544 44.0455 35.4486 44.0416C35.3965 44.0075 35.3675 43.9477 35.3702 43.896L35.3707 43.882L35.4427 42.3058H35.4429L35.4432 42.3025C35.4434 42.2979 35.4438 42.2951 35.4441 42.2936L35.4485 42.2857C35.4569 42.2705 35.4725 42.26 35.4899 42.2599V42.26L36.9191 42.3262L38.0615 42.3793V42.3796L38.0646 42.3797L38.0737 42.3823C38.0775 42.3834 38.0795 42.3838 38.0806 42.384C38.0812 42.3842 38.0816 42.3843 38.0818 42.3844C38.0962 42.3922 38.1058 42.4081 38.1049 42.4259L38.0309 44.0194C38.0291 44.0579 37.3186 44.0425 37.1883 44.0397L37.1844 44.0396V44.0395L37.1774 44.0394C36.9074 44.0329 36.6834 44.2465 36.6771 44.5164C36.6716 44.745 36.8246 44.9405 37.0357 44.9988V44.999L37.0378 44.9996C37.1668 45.0352 37.3196 45.0541 37.4998 45.0762L37.5003 45.0763C37.8928 45.1247 38.4909 45.1984 38.4871 45.2859L38.4126 46.9143C38.406 47.0628 37.7531 47.065 37.4456 47.066L37.4453 47.066C37.257 47.0668 37.1242 47.0673 37.0013 47.1278C36.7588 47.2473 36.6593 47.5406 36.7789 47.7829C36.8199 47.8656 36.881 47.9317 36.9535 47.978V47.9783C36.9836 47.9976 37.0144 48.0135 37.0458 48.0263C37.1531 48.0698 37.306 48.0886 37.504 48.1126C37.6573 48.1313 37.8612 48.1394 38.0384 48.1465C38.2526 48.155 38.4276 48.162 38.4267 48.1842L38.3535 49.775H38.3534C38.3531 49.7801 38.3529 49.783 38.3525 49.784C38.3523 49.785 38.3513 49.785 38.3483 49.7895C38.3455 49.7938 38.3434 49.7967 38.3423 49.7975C38.3286 49.8099 38.3083 49.8172 38.2848 49.8172V49.8153H38.283V49.8172C38.1832 49.8172 38.0175 49.8151 37.8305 49.8127C37.6999 49.811 37.5589 49.8092 37.4227 49.8079C37.0091 49.8042 36.6199 49.8188 36.4994 49.9015C36.2759 50.0538 36.2185 50.3583 36.3709 50.5816C36.451 50.6989 36.5731 50.7703 36.7033 50.7896C36.7832 50.8057 36.8783 50.8142 36.9915 50.8243L36.9975 50.8248L36.9987 50.8249C37.2977 50.8515 37.8064 50.8968 37.8751 50.9561L37.8774 50.9579C37.8789 50.9592 37.8793 50.9594 37.8796 50.9595C37.8797 50.9596 37.8798 50.9597 37.8801 50.96C37.8803 50.9602 37.8804 50.9604 37.8805 50.9606C37.8807 50.9611 37.8811 50.9618 37.8826 50.9638C37.888 50.9717 37.891 50.9816 37.8905 50.9923L37.818 52.5797H37.8176L37.8175 52.583C37.8173 52.5878 37.8169 52.5908 37.8165 52.5919C37.8165 52.5922 37.8151 52.5949 37.8123 52.5997C37.8043 52.6146 37.7891 52.6249 37.7722 52.6255L36.9997 52.5892L36.9905 52.5889L35.1972 52.5058V52.5057H35.1959V52.5055L35.187 52.503C35.1822 52.5015 35.1803 52.5012 35.1795 52.501C35.1793 52.501 35.1792 52.5009 35.1791 52.5009C35.1648 52.4931 35.1552 52.4769 35.1553 52.4583H35.1554L35.2296 50.8693H35.2297L35.23 50.8657C35.2304 50.859 35.2313 50.8529 35.2328 50.8475C35.2337 50.844 35.2379 50.8349 35.245 50.8206C35.2625 50.7854 35.279 50.7573 35.2836 50.7575C35.5536 50.7669 35.7803 50.5561 35.7897 50.2864C35.7989 50.0287 35.6065 49.8105 35.3538 49.7831C35.3493 49.7798 35.3446 49.7766 35.3398 49.7735C35.2978 49.7356 35.2703 49.677 35.2716 49.6261H35.2718L35.345 48.0343H35.3451L35.345 48.0328L35.3451 48.0323V48.0305C35.3455 48.0279 35.3458 48.0262 35.3461 48.0252C35.3465 48.0239 35.3466 48.024 35.3468 48.0241C35.3471 48.0243 35.3476 48.0247 35.3497 48.0214C35.3601 48.0039 35.3838 47.9927 35.4125 47.9928C35.6825 47.9939 35.9023 47.776 35.9034 47.5063C35.9044 47.2583 35.7202 47.0527 35.4807 47.0203C35.4109 46.9619 35.3632 46.8611 35.3667 46.7879L35.441 45.1936V45.1925H35.4412C35.4411 45.1979 35.4412 45.2047 35.4421 45.1926L35.4426 45.185C35.4436 45.1763 35.4452 45.1683 35.4473 45.1608C35.4517 45.1447 35.4574 45.1295 35.4638 45.1158C35.4752 45.0914 35.4608 45.0691 35.4511 45.0542C35.4435 45.0424 35.4389 45.0352 35.4526 45.0354C35.7226 45.0373 35.9432 44.8204 35.9453 44.5506C35.9472 44.2958 35.7534 44.0849 35.5043 44.0607V44.0603Z" fill="white"/>
<path fill-rule="evenodd" clip-rule="evenodd" d="M35.4566 44.5468C35.086 44.5111 34.8677 44.1638 34.8809 43.8714L34.9546 42.2782C34.9686 41.9863 35.2183 41.7586 35.5113 41.7715L36.9404 41.8377L38.0872 41.8912C38.3794 41.9048 38.6069 42.1547 38.5935 42.447L38.5196 44.0406C38.4955 44.5649 37.318 44.5309 37.1661 44.5277C37.5462 44.6347 39.0077 44.6099 38.9763 45.3067L38.902 46.935C38.8667 47.7107 37.3275 47.5125 37.2174 47.566C37.3501 47.6511 38.941 47.6495 38.9154 48.2056L38.8418 49.7988C38.8285 50.0916 38.5776 50.305 38.2858 50.3056C37.9568 50.3062 36.8108 50.2814 36.7757 50.3064C36.8456 50.3437 37.9324 50.3595 38.1952 50.5863C38.314 50.6889 38.3871 50.8445 38.3794 51.0132L38.3059 52.6066C38.2925 52.8994 38.0424 53.1265 37.7495 53.1136L36.9773 53.0776L35.1737 52.9941C34.8816 52.9803 34.6535 52.7306 34.6671 52.4376L34.7408 50.8444C34.7548 50.5522 35.0091 50.2578 35.3014 50.2683C35.0091 50.2524 34.7697 49.897 34.7828 49.6046L34.8565 48.011C34.8707 47.7185 35.1201 47.5029 35.4138 47.5049C35.1128 47.4854 34.8644 47.0585 34.8778 46.7666L34.9516 45.1729C34.9649 44.8803 35.2151 44.5443 35.4566 44.5468Z" fill="#004071"/>
<path fill-rule="evenodd" clip-rule="evenodd" d="M52.2642 59.4304L48.5666 55.2078L49.3396 45.3873C47.9237 44.3548 46.724 43.8092 46.0438 42.4689C45.6643 41.7213 45.7326 40.5651 47.0674 40.6989C48.1851 40.8114 49.7526 41.3573 50.8585 41.7857C51.933 42.2017 51.8356 42.573 52.0649 43.3291C52.533 44.8816 52.9191 47.2225 53.1705 47.4208L67.1395 61.6029H58.9079C56.0587 61.6029 54.2566 61.8287 52.2642 59.4304Z" stroke="white" stroke-width="1.51201"/>
<path fill-rule="evenodd" clip-rule="evenodd" d="M52.2642 59.4304L48.5666 55.2078L49.3396 45.3873C47.9237 44.3548 46.724 43.8092 46.0438 42.4689C45.6643 41.7213 45.7326 40.5651 47.0674 40.6989C48.1851 40.8114 49.7526 41.3573 50.8585 41.7857C51.933 42.2017 51.8356 42.573 52.0649 43.3291C52.533 44.8816 52.9191 47.2225 53.1705 47.4208L67.1395 61.6029H58.9079C56.0587 61.6029 54.2566 61.8287 52.2642 59.4304Z" fill="#004071"/>
</svg>
