<svg width="120" height="30" viewBox="0 0 120 30" fill="none" xmlns="http://www.w3.org/2000/svg">
<path fill-rule="evenodd" clip-rule="evenodd" d="M25.5916 4.50653C22.7339 1.68944 19.3044 0.280396 15.3104 0.280396C11.0908 0.280396 7.52742 1.66925 4.61314 4.44512C1.69869 7.22833 0.238159 10.6202 0.238159 14.6277C0.238159 18.5937 1.68431 21.979 4.57778 24.7894C7.47058 27.5937 10.964 28.9952 15.0639 28.9952C19.1773 28.9952 22.6843 27.6002 25.5637 24.81C28.4425 22.0136 29.8818 18.6209 29.8818 14.6277C29.8818 10.7025 28.4496 7.32429 25.5916 4.50653ZM9.73647 9.2492C11.2049 7.75988 12.9723 7.01505 15.0642 7.01505C17.1645 7.01505 18.9405 7.7517 20.4005 9.23251C21.8606 10.7138 22.5863 12.5097 22.5863 14.6277C22.5863 16.7457 21.8606 18.5414 20.4005 20.0226C18.9405 21.5042 17.1645 22.2405 15.0642 22.2405C12.9893 22.2405 11.2218 21.496 9.7449 20.0062C8.26768 18.5249 7.53354 16.7292 7.53354 14.6277C7.53354 12.5264 8.26768 10.7305 9.73647 9.2492Z" fill="#004071"/>
<path d="M19.0761 15.6539L21.8994 18.9516C22.0233 19.097 22.0074 19.3153 21.8642 19.4401C21.8077 19.4897 21.7396 19.5174 21.6704 19.5237L21.3002 19.5714C19.207 19.843 18.2595 19.9661 16.7101 19.9987C16.5782 20.0015 16.4621 19.9276 16.4026 19.8181L15.5107 18.8308H15.5102L11.9338 15.2075C11.8001 15.0714 11.8006 14.8515 11.9351 14.7171C12.006 14.6464 12.0993 14.613 12.1914 14.6168C12.9566 14.6168 13.6048 14.616 14.2406 14.616C15.0285 14.616 15.7983 14.6152 16.7471 14.6145C17.2858 14.6145 17.6896 14.6704 18.055 14.8313C18.4235 14.993 18.7321 15.251 19.0761 15.6539Z" fill="#004071"/>
<path fill-rule="evenodd" clip-rule="evenodd" d="M18.8174 15.8801L21.6401 19.1782C19.2857 19.4832 18.3256 19.6179 16.7037 19.6533C16.6972 19.6401 16.6908 19.6273 16.6842 19.6152L15.7645 18.5976L12.177 14.9627C13.8976 14.9619 15.027 14.961 16.7473 14.9602C17.7295 14.9602 18.1972 15.1561 18.8174 15.8801Z" fill="white"/>
<path fill-rule="evenodd" clip-rule="evenodd" d="M18.8174 15.8801L21.6401 19.1782C21.3367 19.3087 21.3401 19.7074 21.4917 19.9759C22.0516 20.9671 22.3696 20.8669 23.0313 21.3546L22.6702 25.9919C22.6211 26.1086 22.5835 26.1862 22.5248 26.2356C22.4813 26.271 22.4298 26.2967 22.3601 26.304C22.0494 26.3332 21.7074 26.33 21.5991 26.2476C21.3928 26.1159 21.4017 25.8459 21.3779 25.2871C21.3619 24.9028 21.2984 25.1117 21.2639 25.2641C21.1715 25.6695 21.013 26.2336 20.888 26.2604C20.6946 26.2861 20.3207 26.2566 20.1844 26.2352C20.0147 26.1768 19.9273 25.5397 19.8784 25.1244C19.8346 24.7491 19.7995 24.9262 19.7534 25.1289C19.6553 25.5607 19.4873 26.0759 19.3812 26.1027C19.1084 26.1583 18.7992 26.1642 18.4849 26.0366C18.3856 26.0053 18.3815 25.3776 18.345 24.9731C18.3194 24.6899 18.2709 24.8422 18.2326 24.9871C18.1449 25.3237 18.0062 25.8139 17.861 25.9038C17.6981 26.0053 16.9485 25.9615 16.8962 25.6143C16.8679 25.3349 16.8841 25.1067 16.8955 24.9689C17.1108 23.4131 16.8134 21.2184 16.7037 19.6533C16.6972 19.6401 16.6908 19.6273 16.6842 19.6152L15.7645 18.5976L12.177 14.9627C13.8976 14.9619 15.027 14.961 16.7473 14.9602C17.7295 14.9602 18.1972 15.1561 18.8174 15.8801Z" fill="white"/>
<path fill-rule="evenodd" clip-rule="evenodd" d="M16.0489 20.6273C16.0426 20.7461 16.0831 20.8763 16.1613 20.9807C16.1522 20.9971 16.1434 21.0138 16.1356 21.0305C16.1211 21.0612 16.1099 21.0936 16.1013 21.1244C16.092 21.1556 16.0864 21.187 16.0834 21.217L16.0823 21.2264C16.0822 21.2278 16.0822 21.2284 16.0823 21.2292C16.0823 21.2307 16.0824 21.2329 16.0819 21.2429L16.0469 21.9961C16.0426 22.0952 16.0758 22.214 16.133 22.3162C16.1224 22.3299 16.1125 22.3446 16.1039 22.3591C16.0872 22.3869 16.0725 22.4192 16.0611 22.4554C16.0497 22.4891 16.0421 22.5245 16.0386 22.5603C16.0384 22.5627 16.0382 22.5649 16.038 22.567C16.0374 22.5731 16.037 22.5782 16.0368 22.5829V22.5835L16.0026 23.3365V23.337C15.9985 23.4365 16.0294 23.544 16.0833 23.6366C16.0657 23.661 16.05 23.6867 16.0368 23.7139C16.0226 23.7428 16.0107 23.7756 16.001 23.8118C15.9912 23.8469 15.9851 23.8829 15.9833 23.918L15.983 23.9193H15.9833L15.983 23.9213L15.9484 24.6737H15.9486L15.9484 24.6748C15.9405 24.8644 16.0429 25.0335 16.1978 25.1189C16.2298 25.1364 16.2622 25.15 16.2944 25.1598C16.3273 25.1692 16.3628 25.1757 16.401 25.1768H16.4018H16.4032H16.404L17.2432 25.2165H17.2452L17.6063 25.2342H17.6082C17.7958 25.2418 17.963 25.1388 18.0479 24.9829C18.064 24.9539 18.077 24.92 18.0876 24.8853C18.0975 24.8497 18.1038 24.8143 18.1056 24.7778V24.7738L18.14 24.0213C18.1426 23.9587 18.1332 23.898 18.114 23.8417C18.1446 23.825 18.1728 23.8045 18.1988 23.7806C18.2294 23.7528 18.2563 23.7221 18.2786 23.6883C18.3004 23.6551 18.3186 23.6167 18.3326 23.5755C18.3459 23.5348 18.3539 23.4916 18.3561 23.4477H18.3559L18.3561 23.4469L18.3901 22.6954C18.3964 22.5653 18.3457 22.4697 18.2642 22.399C18.3328 22.3267 18.3779 22.2277 18.3835 22.0956L18.4182 21.3265C18.4283 21.1074 18.3173 20.9767 18.1603 20.8948C18.1862 20.8471 18.2026 20.7923 18.2052 20.7277L18.2399 19.9754C18.2487 19.7863 18.1459 19.6164 17.9909 19.5306C17.9594 19.5131 17.9268 19.4991 17.8941 19.4897C17.8615 19.4802 17.826 19.4751 17.7877 19.4724H17.786V19.4727L17.7842 19.4724L17.2492 19.4474L16.5813 19.416V19.4165L16.5803 19.416C16.3934 19.4078 16.2254 19.5111 16.1408 19.6675C16.1251 19.697 16.1114 19.7292 16.1013 19.7649C16.0914 19.7995 16.0851 19.836 16.0829 19.8726V19.8741H16.0831L16.0829 19.8769L16.0492 20.6221L16.0489 20.6273ZM16.5682 20.7274H16.5673V20.7269C16.5626 20.7269 16.5579 20.7264 16.5538 20.7247C16.549 20.7227 16.545 20.7207 16.5421 20.7185C16.5176 20.7025 16.5042 20.6745 16.5055 20.6493C16.5057 20.6475 16.5057 20.6458 16.5057 20.6438L16.5393 19.899H16.5394L16.5396 19.8971C16.5396 19.8966 16.5397 19.8962 16.5397 19.8957C16.5398 19.8946 16.5398 19.8937 16.5401 19.8931L16.5421 19.8893C16.5462 19.8819 16.5533 19.8773 16.5614 19.8773L17.2293 19.9083L17.763 19.9337V19.9338H17.7642L17.7688 19.935C17.7713 19.9358 17.7723 19.9363 17.7723 19.9363C17.779 19.9398 17.7837 19.9472 17.7835 19.956L17.7488 20.7079C17.7476 20.7269 17.4087 20.7189 17.3534 20.7174H17.3499C17.224 20.7149 17.1192 20.816 17.1158 20.943C17.1136 21.0507 17.185 21.1433 17.2838 21.1705V21.1708L17.2845 21.1712C17.3448 21.1878 17.4163 21.1969 17.5004 21.2069L17.5089 21.2079C17.6925 21.2313 17.9632 21.2657 17.9618 21.3067L17.9271 22.076C17.9236 22.146 17.6188 22.1468 17.475 22.1468C17.3873 22.1468 17.3248 22.1471 17.268 22.1763C17.1544 22.2327 17.1078 22.3711 17.1639 22.4857C17.1827 22.525 17.2113 22.5563 17.2451 22.5777H17.245C17.2592 22.5867 17.2739 22.5946 17.2886 22.6002C17.3385 22.6209 17.4099 22.6298 17.5021 22.6411C17.5735 22.6499 17.6686 22.6538 17.7512 22.6572C17.8517 22.6614 17.934 22.6648 17.9335 22.6752L17.8992 23.4263C17.899 23.4287 17.8988 23.4303 17.8987 23.4307C17.8987 23.4309 17.8986 23.431 17.8983 23.4312C17.898 23.4316 17.8975 23.4322 17.8967 23.4337C17.8954 23.4357 17.8944 23.4365 17.894 23.4365C17.8878 23.4427 17.878 23.4465 17.8673 23.4465V23.4457H17.8666V23.4465C17.8261 23.4465 17.7624 23.4456 17.6893 23.4446C17.6191 23.4436 17.5402 23.4424 17.4644 23.4419C17.2713 23.4398 17.0893 23.4469 17.033 23.4862C16.9287 23.558 16.9021 23.7019 16.973 23.807C17.0105 23.8626 17.0675 23.8961 17.1283 23.9058C17.1617 23.9127 17.2007 23.9162 17.2464 23.9204C17.2528 23.921 17.2592 23.9215 17.2658 23.9222C17.4053 23.9345 17.6437 23.9564 17.6758 23.9844L17.6769 23.9851C17.6779 23.9864 17.6777 23.9859 17.6779 23.9864C17.6784 23.9864 17.6784 23.9864 17.6794 23.9876C17.6819 23.9912 17.6832 23.9964 17.683 24.0011L17.6493 24.7511H17.6492L17.649 24.7526C17.649 24.7548 17.6488 24.7559 17.6488 24.7559L17.6463 24.7606C17.6427 24.7673 17.6354 24.7725 17.6277 24.7728L17.267 24.7556H17.2625L16.4244 24.7161H16.4241L16.4203 24.7149C16.4175 24.7137 16.4168 24.7137 16.4163 24.7137C16.4095 24.7102 16.4049 24.7024 16.4049 24.6939H16.4053L16.44 23.9435H16.4401V23.9415C16.4404 23.9377 16.4408 23.9353 16.4416 23.933C16.4421 23.9312 16.4436 23.9268 16.4474 23.9202C16.4555 23.904 16.4629 23.8904 16.4652 23.8904C16.5911 23.895 16.6969 23.7955 16.7014 23.6677C16.7058 23.5465 16.6158 23.4427 16.4976 23.4303C16.4958 23.4287 16.4933 23.4267 16.4915 23.426C16.4717 23.4073 16.459 23.3801 16.4594 23.3564L16.4937 22.6046V22.6027C16.4938 22.6019 16.4939 22.6013 16.494 22.6009C16.494 22.6004 16.4941 22.6001 16.4941 22.5999C16.4944 22.5992 16.4945 22.5992 16.4947 22.5993C16.4949 22.5994 16.4952 22.5995 16.4961 22.5979C16.5011 22.5899 16.512 22.5847 16.5254 22.5847C16.6515 22.5855 16.7544 22.4826 16.7546 22.3551C16.7551 22.2372 16.6691 22.1406 16.5571 22.1258C16.5246 22.0974 16.5024 22.05 16.5039 22.0159L16.5384 21.2628V21.2624H16.5386C16.5386 21.2651 16.5386 21.2683 16.5391 21.2624L16.5393 21.2586C16.5398 21.2549 16.5406 21.2508 16.5417 21.2469C16.5437 21.2392 16.5464 21.2326 16.5495 21.2264C16.5546 21.215 16.548 21.2043 16.5435 21.197C16.5399 21.1912 16.5377 21.1877 16.5441 21.1878C16.6705 21.1887 16.7736 21.0869 16.7744 20.959C16.7751 20.8385 16.6848 20.7387 16.5682 20.7274Z" fill="white"/>
<path fill-rule="evenodd" clip-rule="evenodd" d="M16.5461 20.9569C16.3731 20.9401 16.2708 20.777 16.2773 20.6383L16.3116 19.886C16.3184 19.7473 16.4347 19.6403 16.5714 19.647L17.2393 19.6774L17.7747 19.7029C17.9118 19.7091 18.0176 19.8273 18.0114 19.9658L17.9771 20.7175C17.9658 20.966 17.4156 20.9494 17.3445 20.9479C17.5222 20.9985 18.2051 20.9868 18.1902 21.3166L18.1555 22.0853C18.1392 22.4513 17.4201 22.3573 17.3685 22.3833C17.4306 22.4232 18.174 22.4226 18.1616 22.6851L18.1274 23.4371C18.121 23.5758 18.0042 23.6761 17.868 23.6761C17.714 23.6764 17.179 23.6659 17.1621 23.6769C17.1952 23.6951 17.7028 23.7024 17.8255 23.8089C17.8809 23.8575 17.9149 23.9309 17.9118 24.011L17.8773 24.7637C17.8712 24.902 17.7542 25.0092 17.6172 25.003L17.2563 24.986L16.4138 24.9463C16.2776 24.9401 16.1709 24.8223 16.1771 24.6839L16.2117 23.9309C16.2183 23.7937 16.3368 23.6547 16.4734 23.6589C16.3368 23.6519 16.2251 23.4841 16.2312 23.3456L16.2659 22.5931C16.2723 22.4549 16.3885 22.3533 16.5263 22.3545C16.3853 22.3451 16.2693 22.1432 16.2755 22.0057L16.31 21.2528C16.3163 21.1146 16.4328 20.9564 16.5461 20.9569Z" fill="#004071"/>
<path fill-rule="evenodd" clip-rule="evenodd" d="M24.183 28.1715C25.0451 29.219 25.8544 29.2998 26.9032 29.2998C26.9952 29.2998 27.09 29.2993 27.1875 29.2986C27.2024 29.2985 27.2174 29.2984 27.2324 29.2983C27.3199 29.2977 27.4095 29.2971 27.5013 29.2971H31.3469C31.4607 29.2971 31.5635 29.2284 31.6074 29.1222C31.6516 29.0158 31.6281 28.8938 31.5483 28.8118L25.0356 22.1282C24.9892 22.0213 24.9044 21.6486 24.836 21.3467C24.8325 21.3311 24.8289 21.3155 24.8253 21.2998C24.7501 20.9708 24.6664 20.6051 24.575 20.2991C24.5605 20.2518 24.549 20.206 24.5379 20.1622C24.5368 20.1578 24.5357 20.1534 24.5346 20.1491C24.4522 19.8202 24.3597 19.5894 23.8428 19.3872C23.0569 19.079 22.4361 18.9008 21.9981 18.8564C21.9561 18.8517 21.9143 18.8494 21.8745 18.8494C21.484 18.8494 21.2998 19.0568 21.2249 19.1798C21.0434 19.4782 21.1195 19.8656 21.24 20.1054C21.5179 20.6581 21.9429 20.948 22.4355 21.2838C22.445 21.2903 22.4545 21.2968 22.464 21.3033C22.553 21.3642 22.6441 21.4266 22.7374 21.4927L22.3889 25.9699C22.3828 26.0455 22.4077 26.1221 22.4579 26.18L24.183 28.1715ZM24.6104 27.798L22.9614 25.8948L23.313 21.3767C23.3209 21.2771 23.2775 21.1825 23.1981 21.1241C23.0418 21.0082 22.8943 20.9076 22.7513 20.8105L22.7487 20.8087C22.3055 20.5065 21.9551 20.2676 21.7439 19.8474C21.6697 19.6997 21.6667 19.5441 21.7064 19.4782C21.7355 19.4303 21.8196 19.4116 21.9417 19.4245C22.3235 19.463 22.9106 19.6342 23.6388 19.9195C23.922 20.0298 23.9321 20.0695 23.987 20.289C23.9884 20.2944 23.9898 20.2999 23.9912 20.3055C24.0035 20.3534 24.017 20.4063 24.0346 20.465C24.1241 20.7669 24.2097 21.1423 24.2854 21.4745C24.4544 22.219 24.5083 22.4148 24.6283 22.5233L30.6726 28.7264H27.5014C27.3925 28.7264 27.2866 28.727 27.1838 28.7279C27.0878 28.7285 26.9946 28.7289 26.9032 28.7289C25.9528 28.7289 25.3247 28.6663 24.615 27.8038C24.6139 27.802 24.6122 27.8 24.6104 27.798Z" fill="white"/>
<path fill-rule="evenodd" clip-rule="evenodd" d="M24.3975 27.9854L22.6701 25.992L23.0309 21.3547C22.3698 20.867 21.8092 20.6085 21.4916 19.9763C21.3143 19.6229 21.3464 19.0776 21.97 19.1401C22.4918 19.1933 23.2238 19.451 23.7408 19.6537C24.2428 19.8497 24.1975 20.0257 24.3044 20.3824C24.5232 21.1155 24.7031 22.2207 24.821 22.3146L31.3465 29.0122H27.5009C26.1701 29.0122 25.3282 29.1189 24.3975 27.9854Z" fill="#004071"/>
<path fill-rule="evenodd" clip-rule="evenodd" d="M46.1861 24.6002C46.8894 24.6002 47.6133 24.5566 48.2947 24.364L48.3588 24.0189C48.3164 24.0411 48.124 24.0411 48.0822 24.0411C46.7617 24.0411 44.3761 22.5132 43.353 21.8038C46.7617 20.9428 48.124 17.5012 48.124 14.2338C48.124 10.253 46.6338 7.11133 42.2875 7.11133C38.0707 7.11133 35.4932 10.6612 35.4932 14.7265C35.4932 18.4481 36.7932 22.1914 41.1165 22.1914C42.2662 23.1594 44.6524 24.6002 46.1861 24.6002ZM37.7727 14.4261C37.7727 11.8658 38.6035 8.1881 41.7353 8.1881C45.1639 8.1881 45.8459 11.7365 45.8459 14.5115C45.8459 17.3078 45.0787 21.1798 41.6275 21.1798C38.1136 21.1798 37.7727 17.1347 37.7727 14.4261Z" fill="#231F20"/>
<path d="M57.2168 21.9969L57.1099 20.1905C56.3867 21.5458 54.7888 22.1915 53.3192 22.1915C51.2319 22.1915 50.8694 20.556 50.8694 18.792V12.8334C50.8694 12.2319 50.1458 12.0602 49.6766 12.0602L49.6562 11.6945C50.7212 11.6079 51.7643 11.3934 52.8295 11.2861V19.0714C52.8295 20.1037 53.17 21.0079 54.3415 21.0079C55.5552 21.0079 57.0688 19.8676 57.0688 18.5772V12.7704C57.0688 12.2965 56.4928 12.0815 56.1096 12.0602V11.6945C57.0894 11.5869 58.0273 11.3716 59.0065 11.2861V20.1695C59.0065 21.0942 59.3266 21.5458 60.2623 21.5667V21.9969H57.2168Z" fill="#231F20"/>
<path fill-rule="evenodd" clip-rule="evenodd" d="M65.2246 22.1915C66.6305 22.1915 68.0366 21.9756 69.4212 21.696V21.5029C68.9529 21.2229 68.9099 20.6214 68.9099 20.1256V14.3188C68.9099 11.7364 67.3552 11.2648 65.1181 11.2648C64.3302 11.2648 61.7733 11.7364 61.7733 12.791C61.7733 13.309 62.2856 13.8449 62.6678 14.1258C62.988 13.0929 63.9467 12.167 65.0762 12.167C66.6521 12.167 66.9937 13.2654 66.9937 14.6192V16.275C66.4827 16.1454 65.9699 16.1027 65.4594 16.1027C63.4146 16.1027 61.178 16.8776 61.178 19.2866C61.178 21.7389 63.2226 22.1915 65.2246 22.1915ZM65.9066 17.0058C66.2686 17.0058 66.6303 17.0275 66.9935 17.1348V20.9866C66.4826 21.2014 65.9274 21.287 65.3742 21.287C64.1805 21.287 63.2225 20.6847 63.2225 19.3733C63.2225 17.674 64.3517 17.0058 65.9066 17.0058Z" fill="#231F20"/>
<path d="M75.2641 21.9117C74.7524 22.1265 74.1566 22.2121 73.6025 22.2121C71.5789 22.2121 71.3877 21.417 71.3877 19.6312V8.27434C71.3877 7.49948 70.9827 7.00398 70.1938 7.00398V6.63799C71.2596 6.55288 72.3029 6.33776 73.3677 6.25098V19.6312C73.3677 21.0502 74.1138 21.417 75.4125 21.3525L75.2641 21.9117Z" fill="#231F20"/>
<path fill-rule="evenodd" clip-rule="evenodd" d="M77.6215 7.82159C77.6215 8.51001 78.2388 9.06925 78.8998 9.06925C79.5804 9.06925 80.1774 8.46661 80.1774 7.77886C80.1774 7.09078 79.5392 6.57275 78.8998 6.57275C78.2388 6.57275 77.6215 7.1547 77.6215 7.82159ZM76.7275 21.9967H81.1998V21.6096C80.5617 21.5664 79.944 21.2228 79.944 20.5129V11.2645L76.7275 11.7363V12.1669C77.4085 12.254 77.9832 12.3608 77.9832 13.2004V20.5129C77.9832 21.266 77.3665 21.5237 76.7275 21.6096V21.9967Z" fill="#231F20"/>
<path d="M88.8365 13.9525C88.6869 12.9857 87.942 12.167 86.9191 12.167C84.8536 12.167 84.4268 14.8773 84.4268 16.4695C84.4268 18.3829 85.0659 21.2229 87.43 21.2229C88.0696 21.2229 88.7514 21.2015 89.369 20.921C89.3254 21.2446 89.2411 21.6531 88.9853 21.8898C88.7514 22.084 87.43 22.1915 87.0683 22.1915C83.6817 22.1915 82.3184 19.8035 82.3184 16.6401C82.3184 13.8671 84.1284 11.2648 87.0471 11.2648C88.0063 11.2648 89.8798 11.3499 89.8798 12.6838C89.8798 13.287 89.3254 13.7376 88.8365 13.9525Z" fill="#231F20"/>
<path fill-rule="evenodd" clip-rule="evenodd" d="M90.6228 16.64C90.6228 19.4583 91.5184 22.1914 94.777 22.1914C98.2267 22.1914 99.9321 19.5452 99.9321 16.2965C99.9321 13.4581 98.8661 11.2428 95.757 11.2428C92.6463 11.2428 90.6228 13.5657 90.6228 16.64ZM92.6892 16.4896C92.6892 14.7698 93.2443 12.1463 95.3953 12.1463C97.6097 12.1463 97.8451 14.8122 97.8451 16.4896C97.8451 18.3615 97.5455 21.2662 95.0967 21.2662C92.8393 21.2662 92.6892 18.1248 92.6892 16.4896Z" fill="#231F20"/>
<path d="M107.045 13.588C106.853 13.1364 106.257 12.6631 105.746 12.6631C104.638 12.6631 104.043 13.975 104.043 14.9413V20.4485C104.043 21.0942 104.68 21.5666 105.277 21.5885V21.9969H100.801V21.6317C101.397 21.5458 102.059 21.1377 102.059 20.4485V13.2869C102.059 12.3822 101.546 12.211 100.78 12.0601V11.6728L103.807 11.243L103.914 13.1144C104.425 11.9735 105.617 11.2003 106.853 11.2003C107.173 11.2003 107.961 11.2647 107.961 11.7158C107.961 12.3398 107.47 13.18 107.045 13.588Z" fill="#231F20"/>
<path fill-rule="evenodd" clip-rule="evenodd" d="M112.32 21.8038C112.809 22.0622 113.385 22.1476 113.938 22.1476C117.452 22.1476 119.05 19.2436 119.05 16.0169C119.05 13.8025 118.475 11.2648 115.791 11.2648C114.385 11.2648 112.703 11.8873 112.234 13.3724C112.234 12.8964 112.215 12.4197 112.196 11.9499C112.186 11.7195 112.177 11.4909 112.17 11.2648L109.125 11.7583V12.0815C109.954 12.1022 110.338 12.8342 110.338 13.6089V24.214C110.338 24.8584 109.721 25.2893 109.125 25.2893V25.6326H113.513L113.533 25.3112C112.958 25.2678 112.32 24.9227 112.32 24.2773V21.8038ZM112.299 15.07C112.299 13.674 113.554 12.3182 114.982 12.3182C116.877 12.3182 116.963 15.0486 116.963 16.4252C116.963 18.4046 116.515 21.1378 114.023 21.1378C113.426 21.1378 112.809 21.072 112.299 20.7493V15.07Z" fill="#231F20"/>
</svg>
